<svg xmlns="http://www.w3.org/2000/svg" id="Group_205" width="12.35" height="12.37" viewBox="0 0 12.35 12.37">
    <defs>
        <style>
            .cls-1{fill:#2b8fff}
        </style>
    </defs>
    <path id="Path_66" d="M11.9 12.37H.45a.446.446 0 0 1-.45-.44V8.56h12.35v3.37a.446.446 0 0 1-.45.44z" class="cls-1"/>
    <path id="Path_67" d="M12.35 6.84H0V4.73a.448.448 0 0 1 .45-.45H11.9a.448.448 0 0 1 .45.45v2.11z" class="cls-1"/>
    <path id="Path_68" d="M2.92 6.03V.45A.44.44 0 0 1 3.36 0a.448.448 0 0 1 .45.45v5.59h-.89z" class="cls-1"/>
    <path id="Path_69" d="M5.73 6.03V.45A.446.446 0 0 1 6.17 0a.448.448 0 0 1 .45.45v5.59h-.89z" class="cls-1"/>
    <path id="Path_70" d="M8.4 6.03V.45A.448.448 0 0 1 8.85 0a.448.448 0 0 1 .45.45v5.59h-.9z" class="cls-1"/>
</svg>
