<svg xmlns="http://www.w3.org/2000/svg" width="11.284" height="16.278" viewBox="0 0 11.284 16.278">
    <defs>
        <style>
            .cls-1{fill:#2b8fff}
        </style>
    </defs>
    <g id="Group_443" transform="translate(-331.05 -247.237)">
        <path id="Path_44" d="M339.8 247.237a.559.559 0 1 0 0 1.117h.626l-2.3 2.3a4.341 4.341 0 1 0-3.294 7.673v2.646h-1.1a.559.559 0 0 0 0 1.117h1.1v.868a.559.559 0 1 0 1.117 0v-.868h1.1a.559.559 0 1 0 0-1.117h-1.1v-2.646a4.331 4.331 0 0 0 2.944-6.861l2.32-2.32v.494a.559.559 0 1 0 1.118 0v-2.4zm-4.408 10.011a3.226 3.226 0 1 1 3.227-3.226 3.229 3.229 0 0 1-3.226 3.226z" class="cls-1"/>
        <ellipse id="Ellipse_12" cx="3.5" cy="4" class="cls-1" rx="3.5" ry="4" transform="translate(331.993 250.171)"/>
    </g>
</svg>
