<svg xmlns="http://www.w3.org/2000/svg" width="64.837" height="64.837" viewBox="0 0 64.837 64.837">
    <defs>
        <filter id="Rectangle_7" width="64.837" height="64.837" x="0" y="0" filterUnits="userSpaceOnUse">
            <feOffset dy="3"/>
            <feGaussianBlur result="blur" stdDeviation="5"/>
            <feFlood flood-opacity=".302"/>
            <feComposite in2="blur" operator="in"/>
            <feComposite in="SourceGraphic"/>
        </filter>
        <style>
            .cls-2{fill:#606060}.cls-3{fill:#fff}
        </style>
    </defs>
    <g id="Group_10" transform="translate(15 12)">
        <g id="Group_9">
            <g id="Group_5" filter="url(#Rectangle_7)" transform="translate(-15 -12)">
                <rect id="Rectangle_7-2" width="34.837" height="34.837" fill="#2b8fff" rx="17.418" transform="translate(15 12)"/>
            </g>
            <g id="Group_8" transform="translate(6.335 11.171)">
                <g id="Group_7">
                    <path id="Path_1" d="M135.123 686.013a7 7 0 0 0 4.725 6.625 6.912 6.912 0 0 0 7.555-2.013 7.922 7.922 0 0 0 1.418-5.605c-2.235-.02-4.47-.013-6.7-.009v2.385c1.339.037 2.677.02 4.016.048a3.873 3.873 0 0 1-2.275 2.653 4.426 4.426 0 1 1-2.981-8.328 4.922 4.922 0 0 1 4.143.809c.622-.582 1.2-1.2 1.776-1.833a7.045 7.045 0 0 0-11.678 5.27z" class="cls-2" transform="translate(-135.119 -678.995)"/>
                    <path id="Path_2" d="M155.678 683.627c-.007.666-.014 1.335-.017 2-.669.006-1.334.01-2 .013v1.994c.666 0 1.335.006 2 .013.007.666.007 1.332.014 2h1.994c0-.669.007-1.335.014-2l2-.01v-1.994c-.666 0-1.335-.006-2-.013 0-.666-.01-1.335-.014-2z" class="cls-2" transform="translate(-137.625 -679.621)"/>
                    <g id="Group_6">
                        <path id="Path_3" d="M135.123 686.013a7.045 7.045 0 0 1 11.677-5.27c-.572.629-1.155 1.252-1.776 1.833a4.921 4.921 0 0 0-4.143-.809 4.426 4.426 0 1 0 2.981 8.328 3.868 3.868 0 0 0 2.275-2.654c-1.338-.027-2.677-.009-4.015-.047 0-.8-.007-1.59 0-2.385 2.232 0 4.467-.01 6.7.009a7.918 7.918 0 0 1-1.418 5.6 6.911 6.911 0 0 1-7.555 2.014 7.005 7.005 0 0 1-4.726-6.619z" class="cls-3" transform="translate(-135.119 -678.995)"/>
                        <path id="Path_4" d="M155.678 683.627h1.99c0 .666.01 1.335.014 2 .666.006 1.335.01 2 .013v1.994l-2 .009c-.006.669-.01 1.335-.014 2h-1.994c-.007-.669-.007-1.335-.014-2-.665-.007-1.334-.01-2-.014v-1.994q1-.005 2-.014c.004-.659.011-1.328.018-1.994z" class="cls-3" transform="translate(-137.625 -679.621)"/>
                    </g>
                </g>
            </g>
        </g>
    </g>
</svg>
