<svg xmlns="http://www.w3.org/2000/svg" width="10.927" height="12.376" viewBox="0 0 10.927 12.376">
    <path fill="#00417c" d="M140.871 127.823a4.035 4.035 0 0 0-3.349.455.261.261 0 0 1-.279 0 4.035 4.035 0 0 0-3.349-.455c-1.8.579-2.754 3.338-1.18 5.652a6.653 6.653 0 0 1 1.142 3.379 7.538 7.538 0 0 0 .507 2.214c.389.924.616.945.639.945s.252-.018.613-1a10.5 10.5 0 0 0 .367-1.48 8.591 8.591 0 0 1 .4-1.554c.23-.549.565-.829 1-.832h.007c.429 0 .762.278.992.826a8.606 8.606 0 0 1 .4 1.557 10.441 10.441 0 0 0 .367 1.483c.362.987.6 1 .613 1 .028 0 .252-.031.638-.947a7.628 7.628 0 0 0 .5-2.175 6.88 6.88 0 0 1 1.152-3.421c1.549-2.27.661-5.057-1.18-5.647z" opacity="0.5" transform="translate(-131.917 -127.639)"/>
</svg>
