<svg xmlns="http://www.w3.org/2000/svg" width="8.179" height="14.435" viewBox="0 0 8.179 14.435">
    <g>
        <g>
            <g>
                <path fill="currentColor" d="M30.992 309.459a.242.242 0 0 0-.218-.14h-2.851l2.814-4.442a.241.241 0 0 0-.2-.369h-3.853a.24.24 0 0 0-.215.133l-3.609 7.217a.241.241 0 0 0 .215.348h2.474l-2.695 6.4a.241.241 0 0 0 .1.3.238.238 0 0 0 .309-.05l7.7-9.142a.241.241 0 0 0 .029-.255z" transform="translate(-22.835 -304.508)"/>
            </g>
        </g>
    </g>
</svg>
