<svg xmlns="http://www.w3.org/2000/svg" width="10.613" height="10.669" viewBox="0 0 10.613 10.669">
    <path fill="#2b8fff" d="M1249.988 261.682a4.332 4.332 0 0 0-3.253.392.28.28 0 0 1-.271 0 4.327 4.327 0 0 0-3.253-.392c-1.753.5-2.675 2.878-1.146 4.872a5.315 5.315 0 0 1 1.109 2.913 5.863 5.863 0 0 0 .493 1.909c.378.8.6.816.62.815s.245-.015.6-.863a8.142 8.142 0 0 0 .355-1.276 6.739 6.739 0 0 1 .392-1.34 1.066 1.066 0 0 1 .966-.717h.008a1.055 1.055 0 0 1 .964.711 6.777 6.777 0 0 1 .391 1.343 8.228 8.228 0 0 0 .356 1.279c.352.85.586.865.6.865.027 0 .245-.027.62-.816a5.957 5.957 0 0 0 .484-1.874 5.491 5.491 0 0 1 1.119-2.95c1.492-1.958.634-4.363-1.154-4.871z" transform="translate(-1241.291 -261.522)"/>
</svg>
