<svg xmlns="http://www.w3.org/2000/svg" width="10.927" height="12.376" viewBox="0 0 10.927 12.376">
    <path fill="#fff" d="M140.871 94.341a4.027 4.027 0 0 0-3.349.455.265.265 0 0 1-.279 0 4.03 4.03 0 0 0-3.349-.456c-1.8.579-2.754 3.338-1.18 5.652a6.653 6.653 0 0 1 1.142 3.379 7.538 7.538 0 0 0 .507 2.214c.389.924.616.945.639.945s.252-.017.613-1a10.5 10.5 0 0 0 .367-1.48 8.591 8.591 0 0 1 .4-1.554c.23-.549.565-.829 1-.832h.007c.429 0 .762.278.992.826a8.6 8.6 0 0 1 .4 1.558 10.46 10.46 0 0 0 .367 1.482c.362.987.6 1 .613 1 .028 0 .252-.031.638-.947a7.628 7.628 0 0 0 .5-2.175 6.88 6.88 0 0 1 1.152-3.421c1.549-2.267.661-5.056-1.18-5.646z" transform="translate(-131.917 -94.156)"/>
</svg>
