<svg xmlns="http://www.w3.org/2000/svg" width="121.66" height="138.74" viewBox="0 0 121.66 138.74">
    <defs>
        <style>
            .cls-1{fill:#fff}.cls-3{fill:#1b437a}
        </style>
    </defs>
    <g id="Group_463" transform="translate(-119 -32)">
        <g id="Group_462" transform="translate(119 32)">
            <g id="Group_459">
                <g id="Group_457">
                    <path id="Path_168" d="M12.18 136.9h-.83v-6.32h.83z" class="cls-1"/>
                    <path id="Path_169" d="M14.33 132.2l.02.52a1.715 1.715 0 0 1 1.39-.61 1.334 1.334 0 0 1 1.34.76 1.747 1.747 0 0 1 1.5-.76c1.03 0 1.55.55 1.57 1.64v3.15h-.8v-3.1a1.068 1.068 0 0 0-.23-.75.99.99 0 0 0-.77-.25 1.037 1.037 0 0 0-.74.27 1.068 1.068 0 0 0-.34.72v3.12h-.81v-3.08a.892.892 0 0 0-1-1.02 1.063 1.063 0 0 0-1.08.67v3.43h-.8v-4.7h.75z" class="cls-1"/>
                    <path id="Path_170" d="M25.33 134.6a2.816 2.816 0 0 1-.49 1.73 1.573 1.573 0 0 1-1.33.66 1.741 1.741 0 0 1-1.35-.54v2.26h-.8v-6.5h.73l.04.52a1.643 1.643 0 0 1 1.36-.61 1.6 1.6 0 0 1 1.34.64 2.822 2.822 0 0 1 .49 1.77v.07zm-.8-.09a2.018 2.018 0 0 0-.34-1.25 1.12 1.12 0 0 0-.93-.46 1.173 1.173 0 0 0-1.09.65v2.24a1.179 1.179 0 0 0 1.1.64 1.089 1.089 0 0 0 .92-.46 2.216 2.216 0 0 0 .34-1.36z" class="cls-1"/>
                    <path id="Path_171" d="M27.22 136.9h-.8v-6.67h.8z" class="cls-1"/>
                    <path id="Path_172" d="M31.41 136.9a1.625 1.625 0 0 1-.11-.5 1.78 1.78 0 0 1-1.34.58 1.678 1.678 0 0 1-1.14-.39 1.25 1.25 0 0 1-.44-1 1.333 1.333 0 0 1 .56-1.14 2.641 2.641 0 0 1 1.57-.41h.78v-.37a.9.9 0 0 0-.25-.67 1.006 1.006 0 0 0-.74-.25 1.124 1.124 0 0 0-.72.22.658.658 0 0 0-.29.53h-.81a1.1 1.1 0 0 1 .25-.68 1.717 1.717 0 0 1 .68-.52 2.257 2.257 0 0 1 .94-.19 1.864 1.864 0 0 1 1.27.41 1.445 1.445 0 0 1 .48 1.12v2.16a2.681 2.681 0 0 0 .16 1.03v.07h-.85zm-1.33-.61a1.353 1.353 0 0 0 .72-.2 1.145 1.145 0 0 0 .49-.51v-.96h-.63c-.98 0-1.48.29-1.48.86a.723.723 0 0 0 .25.59.932.932 0 0 0 .65.22z" class="cls-1"/>
                    <path id="Path_173" d="M34.1 132.2l.03.59a1.725 1.725 0 0 1 1.41-.68q1.485 0 1.5 1.68v3.1h-.8v-3.11a1.068 1.068 0 0 0-.23-.75.937.937 0 0 0-.71-.24 1.173 1.173 0 0 0-.69.21 1.375 1.375 0 0 0-.46.55v3.35h-.8v-4.7h.75z" class="cls-1"/>
                    <path id="Path_174" d="M39.34 131.07v1.14h.88v.62h-.88v2.92a.62.62 0 0 0 .12.42.509.509 0 0 0 .4.14 2.331 2.331 0 0 0 .38-.05v.65a2.268 2.268 0 0 1-.62.09.985.985 0 0 1-.81-.33 1.42 1.42 0 0 1-.27-.92v-2.91h-.85v-.62h.85v-1.14h.8z" class="cls-1"/>
                    <path id="Path_175" d="M43.89 135.65a.566.566 0 0 0-.25-.5 2.5 2.5 0 0 0-.85-.31 4.438 4.438 0 0 1-.97-.31 1.386 1.386 0 0 1-.53-.43 1.083 1.083 0 0 1-.17-.6 1.225 1.225 0 0 1 .49-.98 1.894 1.894 0 0 1 1.25-.4 2.022 2.022 0 0 1 1.3.41 1.312 1.312 0 0 1 .5 1.05h-.81a.719.719 0 0 0-.28-.57 1.052 1.052 0 0 0-.71-.24 1.108 1.108 0 0 0-.69.19.616.616 0 0 0-.25.5.5.5 0 0 0 .23.44 2.765 2.765 0 0 0 .83.28 4.389 4.389 0 0 1 .97.32 1.407 1.407 0 0 1 .55.45 1.119 1.119 0 0 1 .18.64 1.21 1.21 0 0 1-.5 1.01 2.143 2.143 0 0 1-1.31.38 2.411 2.411 0 0 1-1-.2 1.574 1.574 0 0 1-.68-.56 1.383 1.383 0 0 1-.25-.77h.8a.82.82 0 0 0 .32.64 1.25 1.25 0 0 0 .8.24 1.315 1.315 0 0 0 .73-.18.572.572 0 0 0 .3-.5z" class="cls-1"/>
                    <path id="Path_176" d="M47.74 134.51a2.769 2.769 0 0 1 .51-1.74 1.617 1.617 0 0 1 1.34-.66 1.65 1.65 0 0 1 1.31.56v-2.45h.8v6.67h-.74l-.04-.5a1.645 1.645 0 0 1-1.34.59 1.6 1.6 0 0 1-1.33-.67 2.808 2.808 0 0 1-.51-1.74v-.06zm.8.09a2.085 2.085 0 0 0 .33 1.25 1.062 1.062 0 0 0 .91.45 1.182 1.182 0 0 0 1.12-.69v-2.16a1.184 1.184 0 0 0-1.11-.66 1.064 1.064 0 0 0-.92.46 2.319 2.319 0 0 0-.33 1.35z" class="cls-1"/>
                    <path id="Path_177" d="M54.9 136.99a2.035 2.035 0 0 1-1.55-.63 2.335 2.335 0 0 1-.6-1.68v-.15a2.8 2.8 0 0 1 .27-1.25 2.1 2.1 0 0 1 .75-.86 1.862 1.862 0 0 1 1.04-.31 1.758 1.758 0 0 1 1.42.6 2.607 2.607 0 0 1 .51 1.73v.33h-3.18a1.65 1.65 0 0 0 .41 1.12 1.3 1.3 0 0 0 .99.43 1.474 1.474 0 0 0 .72-.17 1.894 1.894 0 0 0 .52-.46l.49.38a2.042 2.042 0 0 1-1.79.92zm-.1-4.21a1.1 1.1 0 0 0-.82.35 1.728 1.728 0 0 0-.41.99h2.35v-.06a1.5 1.5 0 0 0-.33-.95 1 1 0 0 0-.79-.33z" class="cls-1"/>
                    <path id="Path_178" d="M59.21 135.81l1.16-3.61h.82l-1.68 4.7h-.61l-1.7-4.7h.82z" class="cls-1"/>
                    <path id="Path_179" d="M61.97 130.96a.479.479 0 0 1 .12-.33.446.446 0 0 1 .35-.13.484.484 0 0 1 .36.13.437.437 0 0 1 .12.33.479.479 0 0 1-.12.33.455.455 0 0 1-.36.13.432.432 0 0 1-.35-.13.479.479 0 0 1-.12-.33zm.87 5.94h-.8v-4.7h.8z" class="cls-1"/>
                    <path id="Path_180" d="M66 136.33a1.159 1.159 0 0 0 .75-.26.953.953 0 0 0 .36-.65h.76a1.423 1.423 0 0 1-.28.77 1.833 1.833 0 0 1-.68.58 2.026 2.026 0 0 1-.9.22 1.936 1.936 0 0 1-1.53-.64 2.543 2.543 0 0 1-.57-1.75v-.13a2.8 2.8 0 0 1 .25-1.22 1.95 1.95 0 0 1 .72-.83 2.026 2.026 0 0 1 1.11-.3 1.9 1.9 0 0 1 1.31.47 1.7 1.7 0 0 1 .56 1.23h-.76a1.1 1.1 0 0 0-.35-.75 1.056 1.056 0 0 0-.77-.29 1.141 1.141 0 0 0-.95.44 2.023 2.023 0 0 0-.34 1.27v.15a2.044 2.044 0 0 0 .33 1.25 1.2 1.2 0 0 0 .98.44z" class="cls-1"/>
                    <path id="Path_181" d="M70.72 136.99a2.035 2.035 0 0 1-1.55-.63 2.335 2.335 0 0 1-.6-1.68v-.15a2.8 2.8 0 0 1 .27-1.25 2.1 2.1 0 0 1 .75-.86 1.862 1.862 0 0 1 1.04-.31 1.758 1.758 0 0 1 1.42.6 2.607 2.607 0 0 1 .51 1.73v.33h-3.18a1.65 1.65 0 0 0 .41 1.12 1.3 1.3 0 0 0 .99.43 1.474 1.474 0 0 0 .72-.17 1.894 1.894 0 0 0 .52-.46l.49.38a2.019 2.019 0 0 1-1.79.92zm-.1-4.21a1.1 1.1 0 0 0-.82.35 1.728 1.728 0 0 0-.41.99h2.35v-.06a1.5 1.5 0 0 0-.33-.95.984.984 0 0 0-.79-.33z" class="cls-1"/>
                    <path id="Path_182" d="M76.22 135.65a.566.566 0 0 0-.25-.5 2.5 2.5 0 0 0-.85-.31 4.438 4.438 0 0 1-.97-.31 1.386 1.386 0 0 1-.53-.43 1.083 1.083 0 0 1-.17-.6 1.225 1.225 0 0 1 .49-.98 1.894 1.894 0 0 1 1.25-.4 2.022 2.022 0 0 1 1.3.41 1.312 1.312 0 0 1 .5 1.05h-.81a.719.719 0 0 0-.28-.57 1.052 1.052 0 0 0-.71-.24 1.108 1.108 0 0 0-.69.19.616.616 0 0 0-.25.5.5.5 0 0 0 .23.44 2.765 2.765 0 0 0 .83.28 4.389 4.389 0 0 1 .97.32 1.407 1.407 0 0 1 .55.45 1.119 1.119 0 0 1 .18.64 1.21 1.21 0 0 1-.5 1.01 2.143 2.143 0 0 1-1.31.38 2.411 2.411 0 0 1-1-.2 1.574 1.574 0 0 1-.68-.56 1.383 1.383 0 0 1-.25-.77h.8a.82.82 0 0 0 .32.64 1.25 1.25 0 0 0 .8.24 1.315 1.315 0 0 0 .73-.18.572.572 0 0 0 .3-.5z" class="cls-1"/>
                    <path id="Path_183" d="M80.07 134.51a2.769 2.769 0 0 1 .51-1.74 1.617 1.617 0 0 1 1.34-.66 1.65 1.65 0 0 1 1.31.56v-2.45h.8v6.67h-.73l-.04-.5a1.645 1.645 0 0 1-1.34.59 1.6 1.6 0 0 1-1.33-.67 2.808 2.808 0 0 1-.51-1.74v-.06zm.8.09a2.085 2.085 0 0 0 .33 1.25 1.062 1.062 0 0 0 .91.45 1.182 1.182 0 0 0 1.12-.69v-2.16a1.184 1.184 0 0 0-1.11-.66 1.064 1.064 0 0 0-.92.46 2.319 2.319 0 0 0-.33 1.35z" class="cls-1"/>
                    <path id="Path_184" d="M88.18 136.9a1.625 1.625 0 0 1-.11-.5 1.78 1.78 0 0 1-1.34.58 1.678 1.678 0 0 1-1.14-.39 1.25 1.25 0 0 1-.44-1 1.333 1.333 0 0 1 .56-1.14 2.641 2.641 0 0 1 1.57-.41h.78v-.37a.9.9 0 0 0-.25-.67 1.006 1.006 0 0 0-.74-.25 1.124 1.124 0 0 0-.72.22.658.658 0 0 0-.29.53h-.81a1.1 1.1 0 0 1 .25-.68 1.717 1.717 0 0 1 .68-.52 2.257 2.257 0 0 1 .94-.19 1.864 1.864 0 0 1 1.27.41 1.445 1.445 0 0 1 .48 1.12v2.16a2.681 2.681 0 0 0 .16 1.03v.07h-.85zm-1.33-.61a1.353 1.353 0 0 0 .72-.2 1.144 1.144 0 0 0 .49-.51v-.96h-.63c-.98 0-1.48.29-1.48.86a.723.723 0 0 0 .25.59.932.932 0 0 0 .65.22z" class="cls-1"/>
                    <path id="Path_185" d="M91.2 131.07v1.14h.88v.62h-.88v2.92a.62.62 0 0 0 .12.42.509.509 0 0 0 .4.14 2.331 2.331 0 0 0 .38-.05v.65a2.268 2.268 0 0 1-.62.09.985.985 0 0 1-.81-.33 1.42 1.42 0 0 1-.27-.92v-2.91h-.85v-.62h.85v-1.14h.8z" class="cls-1"/>
                    <path id="Path_186" d="M95.92 136.9a1.625 1.625 0 0 1-.11-.5 1.78 1.78 0 0 1-1.34.58 1.678 1.678 0 0 1-1.14-.39 1.25 1.25 0 0 1-.44-1 1.333 1.333 0 0 1 .56-1.14 2.641 2.641 0 0 1 1.57-.41h.78v-.37a.9.9 0 0 0-.25-.67 1.006 1.006 0 0 0-.74-.25 1.124 1.124 0 0 0-.72.22.658.658 0 0 0-.29.53h-.81a1.1 1.1 0 0 1 .25-.68 1.717 1.717 0 0 1 .68-.52 2.257 2.257 0 0 1 .94-.19 1.864 1.864 0 0 1 1.27.41 1.445 1.445 0 0 1 .48 1.12v2.16a2.681 2.681 0 0 0 .16 1.03v.07h-.85zm-1.34-.61a1.353 1.353 0 0 0 .72-.2 1.144 1.144 0 0 0 .49-.51v-.96h-.63c-.98 0-1.48.29-1.48.86a.723.723 0 0 0 .25.59.949.949 0 0 0 .65.22z" class="cls-1"/>
                    <path id="Path_187" d="M100.93 136.9h-.8v-6.67h.8z" class="cls-1"/>
                    <path id="Path_188" d="M102 134.51a2.787 2.787 0 0 1 .27-1.24 1.967 1.967 0 0 1 .76-.85 2.064 2.064 0 0 1 1.1-.3 1.975 1.975 0 0 1 1.55.66 2.526 2.526 0 0 1 .59 1.77v.06a2.848 2.848 0 0 1-.26 1.23 2 2 0 0 1-.75.85 2.11 2.11 0 0 1-1.12.3 1.989 1.989 0 0 1-1.55-.66 2.517 2.517 0 0 1-.59-1.76v-.06zm.8.09a2 2 0 0 0 .36 1.25 1.228 1.228 0 0 0 1.94-.01 2.2 2.2 0 0 0 .36-1.34 1.977 1.977 0 0 0-.37-1.25 1.218 1.218 0 0 0-1.93-.01 2.224 2.224 0 0 0-.36 1.36z" class="cls-1"/>
                    <path id="Path_189" d="M107.09 134.51a2.779 2.779 0 0 1 .51-1.75 1.64 1.64 0 0 1 1.35-.65 1.6 1.6 0 0 1 1.34.61l.04-.52h.73v4.58a1.915 1.915 0 0 1-.54 1.44 1.983 1.983 0 0 1-1.45.52 2.3 2.3 0 0 1-.99-.22 1.768 1.768 0 0 1-.74-.59l.42-.48a1.587 1.587 0 0 0 1.26.64 1.209 1.209 0 0 0 .91-.33 1.258 1.258 0 0 0 .33-.93v-.4a1.65 1.65 0 0 1-1.31.56 1.6 1.6 0 0 1-1.33-.66 2.817 2.817 0 0 1-.53-1.82zm.81.09a2.085 2.085 0 0 0 .33 1.25 1.062 1.062 0 0 0 .91.45 1.182 1.182 0 0 0 1.12-.69v-2.14a1.186 1.186 0 0 0-1.11-.67 1.064 1.064 0 0 0-.92.46 2.285 2.285 0 0 0-.33 1.34z" class="cls-1"/>
                </g>
                <g id="Group_458">
                    <path id="Path_190" d="M16.15 109.43l-3.4 11.31h-2.8l-1.89-6.78-1.91 6.78H3.4L0 109.43h2.84l2 6.87 1.87-6.87H9.4l1.89 6.91 2.02-6.91h2.84z" class="cls-1"/>
                    <path id="Path_191" d="M20.24 108.03a1.46 1.46 0 0 1-1.09.47 1.492 1.492 0 0 1-1.09-.47 1.442 1.442 0 0 1-.44-1.07 1.51 1.51 0 0 1 .44-1.09 1.492 1.492 0 0 1 1.09-.47 1.553 1.553 0 0 1 1.53 1.56 1.4 1.4 0 0 1-.44 1.07zm-2.46 12.71h2.91v-11.18h-2.91z" class="cls-1"/>
                    <path id="Path_192" d="M27.64 113.74c2.92.27 4.38 1.42 4.38 3.47a4.128 4.128 0 0 1-1.24 2.64 4.906 4.906 0 0 1-3.6 1.11 5.768 5.768 0 0 1-3.4-1.25 8.127 8.127 0 0 1-.96-.84c-.1-.12-.21-.25-.33-.4l-.16-.18-.11-.16 2.4-1.38.27.31.24.29a3.569 3.569 0 0 0 .47.44 2.718 2.718 0 0 0 1.53.56q1.95.225 2.13-.93a1.061 1.061 0 0 0-.64-1.22 4.318 4.318 0 0 0-.73-.18l-.38-.04-.36-.02a5.9 5.9 0 0 1-3.36-1.2 3.219 3.219 0 0 1-1.13-2.58 2.78 2.78 0 0 1 1.16-2.31 5.156 5.156 0 0 1 3.31-.96 4.639 4.639 0 0 1 3.18 1.22 4.7 4.7 0 0 1 1 1.2l-2.4 1.18a1.711 1.711 0 0 0-.4-.71 1.875 1.875 0 0 0-1.56-.71 1.574 1.574 0 0 0-1.13.38 1.039 1.039 0 0 0-.33.76v.22l.02.22a1.116 1.116 0 0 0 .24.42 3.144 3.144 0 0 0 1.89.65z" class="cls-1"/>
                    <path id="Path_193" d="M42.24 111.41a5.441 5.441 0 0 1 .84 2.13 8.805 8.805 0 0 1 .02 2.27l-7.49.07a3.292 3.292 0 0 0 .96 2 2.59 2.59 0 0 0 1.78.67 2.951 2.951 0 0 0 2.38-1.27l2.11 1.13a5.161 5.161 0 0 1-4.71 2.33 5.092 5.092 0 0 1-3.87-1.64 5.869 5.869 0 0 1-1.56-4.18 5.708 5.708 0 0 1 1.56-4.24 4.9 4.9 0 0 1 3.64-1.44 4.7 4.7 0 0 1 4.34 2.17zm-1.78 2.42a2.352 2.352 0 0 0-.84-1.78 2.527 2.527 0 0 0-1.73-.51 2.168 2.168 0 0 0-1.67.8 2.655 2.655 0 0 0-.64 1.51z" class="cls-1"/>
                    <path id="Path_194" d="M54.02 108.03a1.46 1.46 0 0 1-1.09.47 1.492 1.492 0 0 1-1.09-.47 1.441 1.441 0 0 1-.44-1.07 1.51 1.51 0 0 1 .44-1.09 1.492 1.492 0 0 1 1.09-.47 1.553 1.553 0 0 1 1.53 1.56 1.441 1.441 0 0 1-.44 1.07zm-2.47 12.71h2.91v-11.18h-2.91z" class="cls-1"/>
                    <path id="Path_195" d="M68.84 109.52a2.746 2.746 0 0 1 2.76 1.58 10.178 10.178 0 0 1 .51 3.82h-.02l.02 5.82h-2.98v-5.82a12.417 12.417 0 0 0-.11-2.18 1.11 1.11 0 0 0-1.22-.78c-.98 0-1.57.56-1.78 1.67a5.835 5.835 0 0 0-.11.82v.47l.02 5.82h-2.87v-5.82a12.417 12.417 0 0 0-.11-2.18 1.11 1.11 0 0 0-1.22-.78 1.717 1.717 0 0 0-1.47.75 4.173 4.173 0 0 0-.58 2.4v5.62h-2.93V109.7h2.93v1.36a4.567 4.567 0 0 1 .44-.44 5.509 5.509 0 0 1 .64-.51 3.779 3.779 0 0 1 2-.58 2.649 2.649 0 0 1 2.8 1.89.252.252 0 0 1 .04-.09l.04-.13a2.485 2.485 0 0 0 .2-.24 4.41 4.41 0 0 1 1.13-.96 3.749 3.749 0 0 1 1.87-.48z" class="cls-1"/>
                    <path id="Path_196" d="M80.62 109.14a4.143 4.143 0 0 1 3.58 1.89 7.083 7.083 0 0 1 1.18 4.13A5.553 5.553 0 0 1 84 119a4.558 4.558 0 0 1-3.62 1.62 4.812 4.812 0 0 1-2.07-.42 3.409 3.409 0 0 1-1.18-.89v6.18H74.2v-16.13h2.78l.16.91a3.594 3.594 0 0 1 1.27-.75 5.905 5.905 0 0 1 2.21-.38zm-.82 9.04c1.79 0 2.69-1.1 2.69-3.31a3.91 3.91 0 0 0-.64-2.38 2.5 2.5 0 0 0-3.93-.05 3.743 3.743 0 0 0-.78 2.18v.49a3.825 3.825 0 0 0 .71 2.16 2.308 2.308 0 0 0 1.95.91z" class="cls-1"/>
                    <path id="Path_197" d="M87.2 105.39h2.89v15.36H87.2z" class="cls-1"/>
                    <path id="Path_198" d="M101.02 113.54c0 .27-.02 1.13-.04 2.58-.02.68-.02 1.24-.02 1.67-.01.61-.02 1.11-.02 1.51 0 .49-.01.97-.02 1.44H98.4l-.22-.78c.01 0 .01.01-.02.02a.485.485 0 0 1-.13.09c-.16.07-.34.16-.53.25a9.758 9.758 0 0 1-2.29.53 3.63 3.63 0 0 1-2.93-.98 2.98 2.98 0 0 1-.93-3.18 3.88 3.88 0 0 1 2.87-2.62 11.7 11.7 0 0 1 2.04-.4 17.757 17.757 0 0 1 1.87-.09v-.78a2.927 2.927 0 0 0-.11-.69c-.18-.46-.62-.71-1.33-.76a2.085 2.085 0 0 0-1.56.49 3.2 3.2 0 0 0-.47.56c-.1.15-.23.36-.38.62l-2.18-1.27a4.172 4.172 0 0 1 3.92-2.49 6.264 6.264 0 0 1 3.76.89 4.177 4.177 0 0 1 1.24 3.39zm-4.78 5.18a2.322 2.322 0 0 0 1.82-1.8 2.745 2.745 0 0 0 .11-1.18 6.978 6.978 0 0 0-3.22.38 1.593 1.593 0 0 0-.98 1.13 1.218 1.218 0 0 0 .29 1.2 2.069 2.069 0 0 0 1.98.27z" class="cls-1"/>
                    <path id="Path_199" d="M109.17 109.39q3.78 0 3.78 5.47v5.87h-3.02v-5.87a5.314 5.314 0 0 0-.33-2.2 1.544 1.544 0 0 0-1.49-.8 1.7 1.7 0 0 0-1.47.78 4.138 4.138 0 0 0-.6 2.42v5.69h-2.96v-11.18h2.96v1.38c.15-.16.3-.31.44-.44a4.736 4.736 0 0 1 .67-.51 3.6 3.6 0 0 1 2.02-.61z" class="cls-1"/>
                    <path id="Path_200" d="M119.17 117.65a1.683 1.683 0 0 0 1.93.44l.56 2.42a7.51 7.51 0 0 1-1.96.22 3.994 3.994 0 0 1-2.76-1.02 2.8 2.8 0 0 1-.89-1.44 12.447 12.447 0 0 1-.16-2.4v-4h-1.78v-2.53h1.78v-4h2.8v4h2.64v2.53h-2.64v4.2c0 .22.01.41.02.56a2.011 2.011 0 0 0 .46 1.02z" class="cls-1"/>
                </g>
            </g>
            <g id="Group_461">
                <path id="Path_201" d="M90.14 11.67a44.609 44.609 0 0 1-1.74 12.32l-8.56 29.73a2.843 2.843 0 0 1-3.2 2.02L59.9 52.99h-.01a10.512 10.512 0 0 0 8.39 7.49l6.67 1.1a2.247 2.247 0 0 1 1.79 2.84 2.244 2.244 0 0 1-2.52 1.59l-11.14-1.84a10.549 10.549 0 0 0 8.41 7.5l.53.09a2.253 2.253 0 0 1 1.8 2.84 2.287 2.287 0 0 1-2.59 1.62c-2.05-.37-4.94-.85-4.94-.85l.87 3.03a5.561 5.561 0 0 0 4.43 3.95l-3.13 10.43c-1.14 4.1-10.27 4.1-11.4 0L33.75 23.99a44.652 44.652 0 0 1-1.73-12.32A11.677 11.677 0 0 1 43.69 0h34.78a11.67 11.67 0 0 1 11.67 11.67z" class="cls-1"/>
                <g id="Group_460">
                    <path id="Path_47_1_" fill="#00ccd4" stroke="#1b437a" stroke-width="4.062px" d="M47.22 6.96A10.05 10.05 0 1 1 37.18 17 10.04 10.04 0 0 1 47.22 6.96z"/>
                    <g id="Group_45_1_" transform="translate(.669 17.901)">
                        <g id="Group_44_1_">
                            <path id="Path_17_1_" d="M62.23 14.98c-3.11-2.7-1.22-8.29 2.81-8.98s6.16-.03 9.4 6.97 9.85.74 9.85.74-4.9 12.75-15.59 5.93a58.882 58.882 0 0 1-6.47-4.66z" class="cls-3"/>
                            <path id="Path_18_1_" d="M60.54 14.98c3.11-2.7 1.22-8.29-2.81-8.98s-6.16-.03-9.4 6.97-9.85.74-9.85.74 4.9 12.75 15.59 5.93a57.945 57.945 0 0 0 6.47-4.66z" class="cls-3"/>
                        </g>
                    </g>
                </g>
            </g>
        </g>
    </g>
</svg>
